<svg width="479" height="479" viewBox="0 0 479 479" fill="none" xmlns="http://www.w3.org/2000/svg">
<path fill-rule="evenodd" clip-rule="evenodd" d="M350.24 252.16C357.563 244.931 357.537 233.207 350.136 225.941L262.053 139.441C247.971 125.384 226.856 146.457 240.939 160.515L299.802 219.203C302.698 222.093 301.683 224.432 297.573 224.432H135.173C126.902 224.432 120.2 231.052 120.2 239.339C120.2 247.568 126.887 254.24 135.173 254.24H297.573C301.698 254.24 302.688 256.594 299.802 259.474L240.939 318.162C226.856 332.209 247.97 353.293 262.053 339.236L350.24 252.16Z" fill="black"/>
<path d="M239.667 463.333C115.952 463.333 15.6667 363.049 15.6667 239.333C15.6667 115.618 115.952 15.3334 239.667 15.3334C363.382 15.3334 463.667 115.618 463.667 239.333C463.667 363.049 363.382 463.333 239.667 463.333Z" stroke="black" stroke-width="29.8667"/>
</svg>
